<svg id="Layer_1" data-name="Layer 1" xmlns="http://www.w3.org/2000/svg" viewBox="0 0 1727.12 1727.12"><defs><style>.cls-1{fill:#e6223d;}.cls-2{fill:#fff;}</style></defs><circle class="cls-1" cx="863.56" cy="863.56" r="863.56"/><path class="cls-2" d="M1283.16,571.36h27.14a26.41,26.41,0,0,0,3.17.4,469.5,469.5,0,0,1,60,5c32.88,4.66,64.87,12.69,95.67,25.18,61.53,25,112.26,63.53,148.47,119.74,25.75,40,41.8,83.22,40.71,131.62-.07,3,1.36,4.1,3.83,5.11,33.63,13.76,57.35,37.59,71.6,70.91,11.22,26.22,15.33,53.9,15.91,82.15.45,21.18.28,42.37.07,63.56-.24,25.49-23.39,48.44-53.15,44-12.24-1.82-21.79-8.23-29.64-17.66-8.42-10.13-18.93-17.94-31.69-20.9-15.34-3.54-31.23-3.9-47-4.55-8.9-.36-17.76.68-26.64,1.32a236.45,236.45,0,0,0-30.56,4.37,246.43,246.43,0,0,0-75.43,28.9,293,293,0,0,0-65.63,52.43c-7.49,8-14.75,16.07-21.64,24.54-20,24.68-36.8,51.5-51.61,79.55a699.43,699.43,0,0,0-33,72.9,991.62,991.62,0,0,0-34.65,107.63c-7.42,28.2-13.7,56.65-19.07,85.31-1.82,9.66-3.57,19.33-5.11,29q-2.92,18.4-5.43,36.88c-1.47,11-2.65,22.09-3.91,33.14-.74,6.59-1.45,13.17-2,19.77-.31,3.51-2.11,3.78-4.89,2.77-4.12-1.51-8.25-3-12.43-4.35-17.28-5.55-34.62-10.9-51.85-16.58-37.41-12.33-74.76-24.81-110.55-41.49-20.44-9.53-40.41-19.88-59.44-32a361.49,361.49,0,0,1-38.65-28.41c-6.25-5.27-12-11.1-17.78-16.82-7.65-7.49-14.32-15.8-21-24.13-1.55-1.93-2.38-2-3.32.37-3.72,9.51-5.57,19.55-7.89,29.41-2.17,9.21-2.7,18.81-2.8,28.23-.14,13.39-1.31,26.74-.46,40.21,1.19,18.88.89,37.84,4.47,56.53,1.07,5.57,1.65,11.23,2.52,16.84,1.61,10.4,2.93,20.86,6.11,31,.9,2.87,0,3.67-2.92,2.79a159.25,159.25,0,0,1-21.54-8.33,283,283,0,0,1-51.22-30.64,300.55,300.55,0,0,1-28.23-23.85c-8.06-7.8-15.63-16.12-23.1-24.49A178.59,178.59,0,0,1,754.46,1591c-7-10.24-14.24-20.29-20.37-31.15-6.92-12.29-14-24.48-19.22-37.58-3.75-9.33-8.09-18.43-11.11-28-1.24-4-2.25-8-3.39-12-2.46-8.6-5.37-17.09-7.3-25.8-2.6-11.79-3.54-23.88-5.37-35.8-1.79-11.67-2.08-23.37-2.45-35.06a278.21,278.21,0,0,1,2.52-46.11c1.37-10.2,2.26-20.49,4.23-30.59,2.56-13.08,6.49-25.86,10.21-38.66,1.87-6.47,3.33-13,6.65-19a20.18,20.18,0,0,0,2.53-8.47c-6.57,2.72-11.92,6.65-17.22,10.62-10.08,7.56-18.93,16.48-27.73,25.46-10.69,10.91-21.16,22-30.88,33.84-6.16,7.48-12.68,14.67-18.74,22.23-6.58,8.21-13.15,16.48-19.89,24.53-10.24,12.23-19.79,25-30.43,36.92-7.24,8.11-14.06,16.6-21.1,24.89-1,1.23-2.13,3-4.06,2.22-1.73-.71-1.11-2.64-1.2-4.1-1.09-18.6,1.17-36.9,5.48-54.94,3-12.42,5.66-24.88,10.42-36.85,4.49-11.31,8.17-22.91,13.11-34.09,5.65-12.76,11.31-25.47,17.54-38,6.71-13.44,13.74-26.67,21-39.81,9.51-17.19,19.37-34.15,29.79-50.79,5.91-9.42,11.65-18.95,17.77-28.23,8.45-12.83,17-25.59,25.87-38.13,5.05-7.13,9.59-14.6,15.08-21.44,2.3-2.86,4.83-5.79,6.37-9.66-2.18.39-4,.64-5.82,1.06-23.44,5.47-45.38,15.22-67.7,23.87-28.52,11.07-56.69,23.06-86.2,31.43a140.23,140.23,0,0,1-20.16,4.13c-1.61.21-4.08,1-4.85-.85-.65-1.59,1.58-2.68,2.71-3.81,1.85-1.83,4-3.34,5.8-5.24,7.59-8.17,15.07-16.44,22.62-24.65,6-6.56,12.1-13.06,18.12-19.61q19.5-21.24,39-42.5c6-6.55,12.1-13,18.13-19.61q19.62-21.36,39.22-42.74c5.95-6.47,11.94-12.89,17.88-19.36q19.75-21.48,39.48-43c5.86-6.38,11.77-12.72,17.63-19.1q19.74-21.49,39.47-43c5.37-5.86,10.92-11.57,16-17.67,35.32-42.37,74.13-81.19,117.28-115.59,62-49.42,130.08-87.73,205.81-111.89a580.67,580.67,0,0,1,146.59-26.9C1270.11,572,1276.68,572.34,1283.16,571.36Zm166.11,350.92c14.65.89,29.2-1.1,43.48-4.85,34.17-9,63.5-26.89,90.25-49.49,3.63-3.07,1.2-4.15-1.42-5.56q-56.46-30.46-112.9-61-62.73-33.85-125.49-67.64c-4.48-2.41-4.82-2.23-4.7,2.66.56,22.09-.82,44.19,1.57,66.28,2.09,19.39,5,38.53,11.81,56.89,9.29,25.13,24.49,45,50.08,55.45C1417.08,921.21,1432.89,923.08,1449.27,922.28Z" transform="translate(-270.3 -270.3)"/></svg>